<svg xmlns="http://www.w3.org/2000/svg" width="2000" height="2250"><svg viewBox="0 0 320 360" data-background-color="#c8c8c8" height="2250" width="2000" xmlns="http://www.w3.org/2000/svg" xmlns:xlink="http://www.w3.org/1999/xlink"><svg viewBox="0 0 320 360" height="360" width="320" id="tight-bounds"><svg/><svg viewBox="0 0 320 360" height="360" width="320"><path transform="translate(-74.993 -51.79) scale(4.65793)" d="m20.6 59.9.8 1-.4-1.3c-.1-.6-.8.1-.4.3m.9-.6c.3.5.6 1 .6 1.5 0 .7.6 1 1.1 1.2-.7-.8-1.1-3-1.7-2.7m38.4-42.4c1.7 0 3.3-.2 5.1.2 4.4 1.1 8.1 3.3 10.6 6.4l7 11.2c.3 2.8.9 5.9.8 9.3.7 0 .6-1 1.4-1.2-.8 2-1.2 4.5-1.4 7.4-.5-1.6 0-4 .1-5.3-.7 1.1-1.1.3-1.1-.2.1-.8-.3-.7-.6-1-1.1-1-1.8-2.1-2.6-3.8.5-1.3.6-3.2-1-4.2-.5-.3-1.1-.8-1.4-1.6-.4-1.1-1.1-2.4-.9-4.1.1-.5-1.5 1.1-2.4.4-3.9-2.7-7.8-5.8-12.5-8.4-2.5 0-4.3-.9-5.2-2-.8-1-.2-2.3 1-2.4.7 0 1.5-.2 2.1.2.1-.4.5-.9 1-.9M50 14.6l.2.1c1 .2 1.5 1.6 2.6 1.1 0 .7.1 1.4-.1 1.9-.3.8-1.2.8-1.9.8-6.7-.4-10.6 2.4-14.7 4.8-1.1.7-2.3 1.2-3.2 2.1-4.3 4-9 7.7-10.1 15.1l-.9 8.2c-.1.9-1.1 1.8-.9 2.9l.7 4.9c-.7-.7-1.1.2-.9.6.1.3.5 1.3 1.1.4.8 1.5 1.6 4.4 2.7 5.7 3.4 4 7.8 7.6 11.4 11.2.9-.2 1.6-.2 1.8-.8.3.6-.3 1.2-.8 1.3 1.6 1 3.4 1.9 5.8 2.1 3.1.2 6 .7 8.7 1.4 1.4-.4 2.8-.6 4.3-.7.5 0 .8-.8 1.4-1l.1-1c.6.9.5-.3.1-.9.7.6.9 1.1 1.2 1.5 0-.3.8-1.4.8-.1l.2-1.3c.3-.2.4 1.1.7.2.3-.9.9-.2 1.5-.5-.2.4-.1 1.2.6.7l.8-.7c.5 1.2 1.3.7 1.7.5 4.4-2.8 8.8-6.1 13-9.4l-.1 1.3.5-1.6c.5.5.9.1 1.1-.2.6-1 1.4-2 2.7-2.9-1.6 4.3-3.5 7.7-5.9 10.5l-1 1.2c0 .7-.2 1.6-1 1.7-.4.1-1.2-.2-1.8.4-.3.4.7 1.2-.1.6-.7-.5-1.4 0-2.2.2-.6.2.4.8.6 1.2.2.4.4.8.3 1.3l-1.1-1.2c-1.3.7-2.1 2-3.2 3-.5.4-.3 1.1-.3 1.7-.7 0-1.5-.2-1.9.2-.3.4-.2 1-.2 1.6-1-.1-1.1-1.6-2-1.3-.9.2-1.9.3-2.7.8.6 1.2-1 .5-.8.7-1.5-.9-2.8-1.6-4.4-1-3.4-1.1-7.6-.6-10.7-.2 0-.5.1-1-.1-1.1-.2.5-.8.3-.7.3-1.9-1.3-3.8-2.1-5.8-3.2-1.8.2-3.5-.7-4-1.2-1.4-1.3-3-.6-4.3-.9C26 76.9 25 74 24.7 72c-.2-1-1-1.4-1.3-1.3-1.3-4.2-3.3-8-4.9-11.9-.4-1-.3-2-.3-3.1.5.2 1 .1.9-.6-.5-3.3-1.7-5.8-3-8.2.7-3.4.8-7.4 2.4-10.4 1.4-2.7 4-4.1 5.8-6.4.6-.8.6-1.9 1.2-2.6 2-2 4-4.1 6.2-5.9 1-.8 2.2 0 3.7-.3.5-1.8 2.5-3.4 4.4-2.9.8.2 2.4-1.9 2.9-2.1.8-.3.4.8.4 1.5 1.9-1.5 4.5-2.3 6.9-3.2" stroke-miterlimit="10" font-family="none" font-weight="none" font-size="none" text-anchor="none" style="mix-blend-mode:normal" data-fill-palette-color="tertiary"/><svg viewBox="0 0 192 126.33" height="126.33" width="192" transform="translate(64 116.835)"><svg viewBox="0 0 192 126.33" height="126.33" width="192"><svg viewBox="0 0 192 50.978" height="50.978" width="192" transform="translate(0 75.352)"><g id="textblocktransform"><svg viewBox="0 0 192 50.978" height="50.978" width="192" id="textblock"><svg viewBox="0 0 192 33.576" height="33.576" width="192"><svg width="192" viewBox="3.25 -37.5 217.28 38" height="33.576" data-palette-color="#000000"><path d="M17.55-14.15v-3.55H10.5v14.3h3.25V0H3.25v-3.4H6.4v-30.7H3.25v-3.4H26.7v9.25h-3.4v-5.85H10.5v13h7.05v-3.55h3.4v10.5h-3.4ZM39.25 0H30q-2.55 0-3.6-1.18-1.05-1.17-1.05-3.27v-16.1q0-2 .92-3.23Q27.2-25 30-25h9.25q2.75 0 3.7 1.22.95 1.23.95 3.23v16.1q0 2.1-1.05 3.27Q41.8 0 39.25 0ZM29.4-21.6v18.2h10.45v-18.2H29.4ZM61.8 0h-9.25Q50 0 48.95-1.18 47.9-2.35 47.9-4.45v-16.1q0-2 .92-3.23.93-1.22 3.73-1.22h9.25q2.75 0 3.7 1.22.95 1.23.95 3.23v16.1q0 2.1-1.05 3.27Q64.34 0 61.8 0Zm-9.85-21.6v18.2H62.4v-18.2H51.95ZM89.64-3.45h3.15V0h-7.25v-5.75L76.89-.3q-1.55.8-2.92.8-1.38 0-2.2-1-.83-1-.83-2.3v-17.5q0-2.3.7-3.15 1.2-1.55 3.8-1.55h10.1v-9.1h-3.3v-3.4h7.4v34.05Zm-4.1-6.3V-21.6h-10.6v18.45l10.6-6.6Zm26.8-4.4v-3.55h-7.05v14.3h3.25V0h-10.5v-3.4h3.15v-30.7h-3.15v-3.4h23.45v9.25h-3.4v-5.85h-12.8v13h7.05v-3.55h3.4v10.5h-3.4ZM133.74-25v21.6h3.25V0h-10.5v-3.4h3.15v-18.2h-3.15V-25h7.25Zm-2.05-9.2q1.05 0 1.77.77.73.78.73 1.85 0 1.08-.73 1.8-.72.73-1.8.73-1.07 0-1.8-.73-.72-.72-.72-1.8 0-1.07.75-1.85.75-.77 1.8-.77Zm9.8 30.55V-20.1q0-4.95 5.15-4.95h8.45q2.45 0 3.55.95 1.1.95 1.1 3.5v4.65l-14.25 9v3.55h10.3v-2.9h3.95v2.65q0 1.5-.93 2.58Q157.89 0 155.74 0h-10.25q-2.15 0-3.08-1.07-.92-1.08-.92-2.58Zm4-17.95V-11l10.25-6.45v-4.15h-10.25Zm34.04 14.1v3.1q0 4.4-4.3 4.4h-12.1v-7.55h3.4v4.15h9v-4.15l-8.2-5.15q-1.25-.8-2.15-1.3-.9-.5-1.5-1-1.1-1-1.1-2.7v-2.85q0-2.1.7-2.9 1.35-1.55 4-1.55h11.65v7.5h-3.4v-4.1h-9v4.2l8.5 5.3q1.05.65 1.88 1.12.82.48 1.37.98 1.25 1.05 1.25 2.5Zm8.2-26.6h3.9v9.1h4.05v3.6h-4.05v18h4.75V0h-4.2q-2.25 0-3.35-1.18-1.1-1.17-1.1-4.02v-16.2h-3.7V-25h3.7v-9.1Zm29.65 30.7h3.15V0h-17.4q-2.55 0-3.45-1-.8-.9-.8-3.4v-1.85q0-1.8.45-2.45.65-.95 2.95-2.35l11-6.85v-3.7h-9.8v2.9h-3.2V-25h12.5q2.55 0 3.57 1.1 1.03 1.1 1.03 3.2v17.3Zm-4.1 0v-10.5l-10.4 6.5v4h10.4Z" opacity="1" fill="#000" class="wordmark-text-0" data-fill-palette-color="primary" id="text-0"/></svg></svg><svg viewBox="0 0 118.656 12.503" height="12.503" width="118.656" transform="translate(36.672 38.475)"><svg width="118.656" viewBox="5 -37.4 455.96 48.05" height="12.503" data-palette-color="#000000"><path d="M5-34.45h4.75v30.3H23.9L23.35 0H5v-34.45Zm44.55 20.5q0 1.15-.1 2.35h-16.8q.3 4.35 2.2 6.4 1.9 2.05 4.9 2.05 1.9 0 3.5-.55t3.35-1.75l2 2.75Q44.4.6 39.4.6 33.9.6 30.82-3q-3.07-3.6-3.07-9.9 0-4.1 1.32-7.28 1.33-3.17 3.8-4.97 2.48-1.8 5.83-1.8 5.25 0 8.05 3.45 2.8 3.45 2.8 9.55ZM45-15v-.3q0-3.9-1.55-5.95-1.55-2.05-4.65-2.05-5.65 0-6.15 8.3H45ZM68.45-4.25 70.2-1.2Q67.59.6 64.3.6q-3.35 0-5.23-1.93Q57.2-3.25 57.2-6.9v-15.9h-4.6v-3.55h4.6v-5.95l4.6-.55v6.5h6.25l-.5 3.55H61.8v15.7q0 2.05.72 2.97.73.93 2.43.93 1.55 0 3.5-1.05Zm15.74-30.2h24.6l-.5 4.05h-9.55V0h-4.75v-30.4h-9.8v-4.05Zm42.25 7.5q3.6 0 5.62 2.15 2.03 2.15 2.03 5.9V0h-4.6v-18.25q0-2.8-1.08-3.95-1.07-1.15-3.12-1.15t-3.65 1.2q-1.6 1.2-3 3.4V0h-4.6v-36.9l4.6-.5v14.7q3.1-4.25 7.8-4.25Zm36.8 13q0 1.15-.1 2.35h-16.8q.3 4.35 2.2 6.4 1.9 2.05 4.9 2.05 1.9 0 3.5-.55t3.35-1.75l2 2.75q-4.2 3.3-9.2 3.3-5.5 0-8.58-3.6-3.07-3.6-3.07-9.9 0-4.1 1.32-7.28 1.33-3.17 3.8-4.97 2.48-1.8 5.83-1.8 5.25 0 8.05 3.45 2.8 3.45 2.8 9.55ZM158.69-15v-.3q0-3.9-1.55-5.95-1.55-2.05-4.65-2.05-5.65 0-6.15 8.3h12.35Zm23.34-11.95q1.4 0 2.6.3l-.85 4.5q-1.2-.3-2.3-.3-2.45 0-3.95 1.8t-2.35 5.6V0h-4.6v-26.35h3.95l.45 5.35q1.05-2.95 2.85-4.45t4.2-1.5Zm27.75 13q0 1.15-.1 2.35h-16.8q.3 4.35 2.2 6.4 1.9 2.05 4.9 2.05 1.9 0 3.5-.55t3.35-1.75l2 2.75q-4.2 3.3-9.2 3.3-5.5 0-8.57-3.6-3.08-3.6-3.08-9.9 0-4.1 1.33-7.28 1.32-3.17 3.8-4.97 2.47-1.8 5.82-1.8 5.25 0 8.05 3.45 2.8 3.45 2.8 9.55ZM205.23-15v-.3q0-3.9-1.55-5.95-1.55-2.05-4.65-2.05-5.65 0-6.15 8.3h12.35Zm40.6-3.2q3.55.6 5.75 2.5t2.2 5.9q0 9.8-13.65 9.8h-9.5v-34.45h8.15q6.55 0 10.02 2.15 3.48 2.15 3.48 6.55 0 3-1.88 5-1.87 2-4.57 2.55Zm-6.55-12.5h-3.9v10.85h5.2q3 0 4.92-1.45 1.93-1.45 1.93-4.1 0-3-2.03-4.15-2.02-1.15-6.12-1.15Zm.85 26.9q4.2 0 6.42-1.25 2.23-1.25 2.23-4.75 0-3.4-2.15-4.9-2.15-1.5-5.6-1.5h-5.65v12.4h4.75Zm40.54-10.15q0 1.15-.1 2.35h-16.8q.3 4.35 2.2 6.4 1.9 2.05 4.9 2.05 1.9 0 3.5-.55t3.35-1.75l2 2.75q-4.2 3.3-9.2 3.3-5.5 0-8.57-3.6-3.08-3.6-3.08-9.9 0-4.1 1.33-7.28 1.32-3.17 3.8-4.97 2.47-1.8 5.82-1.8 5.25 0 8.05 3.45 2.8 3.45 2.8 9.55ZM276.12-15v-.3q0-3.9-1.55-5.95-1.55-2.05-4.65-2.05-5.65 0-6.15 8.3h12.35Zm37.45-20.05q3.1 0 5.22.8 2.13.8 4.33 2.6l-2.6 3.05q-3.15-2.55-6.65-2.55-4.3 0-6.93 3.3-2.62 3.3-2.62 10.6 0 7.1 2.6 10.47 2.6 3.38 6.9 3.38 2.2 0 3.85-.75t3.5-2.1l2.35 3q-1.6 1.65-4.1 2.75-2.5 1.1-5.75 1.1-4.2 0-7.48-2.08-3.27-2.07-5.1-6.1-1.82-4.02-1.82-9.67t1.9-9.68q1.9-4.02 5.15-6.07 3.25-2.05 7.25-2.05Zm28.1 8.1q3.6 0 5.62 2.15 2.03 2.15 2.03 5.9V0h-4.6v-18.25q0-2.8-1.08-3.95-1.07-1.15-3.12-1.15t-3.65 1.2q-1.6 1.2-3 3.4V0h-4.6v-36.9l4.6-.5v14.7q3.1-4.25 7.8-4.25Zm34.64 20.8q0 1.6.55 2.37.55.78 1.65 1.18L377.46.6q-2.05-.25-3.3-1.15-1.25-.9-1.85-2.8Q369.66.6 364.46.6q-3.9 0-6.15-2.2-2.25-2.2-2.25-5.75 0-4.2 3.03-6.45 3.02-2.25 8.57-2.25h4.05V-18q0-2.8-1.35-4-1.35-1.2-4.15-1.2-2.9 0-7.1 1.4l-1.15-3.35q4.9-1.8 9.1-1.8 4.65 0 6.95 2.27 2.3 2.28 2.3 6.48v12.05Zm-10.8 3.3q3.95 0 6.2-4.1V-13h-3.45q-7.3 0-7.3 5.4 0 2.35 1.15 3.55 1.15 1.2 3.4 1.2Zm32.65-24.1q3.6 0 5.63 2.15 2.02 2.15 2.02 5.9V0h-4.6v-18.25q0-2.8-1.05-3.95-1.05-1.15-3.1-1.15-2.1 0-3.7 1.2t-3 3.45V0h-4.6v-26.35h3.95l.4 3.9q1.4-2.1 3.48-3.3 2.07-1.2 4.57-1.2Zm36.8-2.35 1.35 4.15q-1.5.5-3.3.65-1.8.15-4.4.15 4.65 2.1 4.65 6.65 0 3.95-2.7 6.45t-7.35 2.5q-1.8 0-3.35-.5-.6.4-.95 1.07-.35.68-.35 1.38 0 2.15 3.45 2.15h4.2q2.65 0 4.7.95 2.05.95 3.17 2.6 1.13 1.65 1.13 3.75 0 3.85-3.15 5.93-3.15 2.07-9.2 2.07-4.25 0-6.73-.87-2.47-.88-3.52-2.63-1.05-1.75-1.05-4.5h4.15q0 1.6.6 2.53.6.92 2.15 1.4 1.55.47 4.4.47 4.15 0 5.92-1.02 1.78-1.03 1.78-3.08 0-1.85-1.4-2.8-1.4-.95-3.9-.95h-4.15q-3.35 0-5.08-1.43-1.72-1.42-1.72-3.57 0-1.3.75-2.5t2.15-2.15q-2.3-1.2-3.38-2.98-1.07-1.77-1.07-4.32 0-2.65 1.32-4.75 1.33-2.1 3.65-3.28 2.33-1.17 5.18-1.17 3.1.05 5.2-.23 2.1-.27 3.47-.75 1.38-.47 3.38-1.37Zm-12.05 5.65q-2.6 0-4.03 1.62-1.42 1.63-1.42 4.28 0 2.7 1.45 4.32 1.45 1.63 4.1 1.63 2.7 0 4.12-1.58 1.43-1.57 1.43-4.42 0-5.85-5.65-5.85Zm38.05 9.7q0 1.15-.1 2.35h-16.8q.3 4.35 2.2 6.4 1.9 2.05 4.9 2.05 1.9 0 3.5-.55t3.35-1.75l2 2.75q-4.2 3.3-9.2 3.3-5.5 0-8.58-3.6-3.07-3.6-3.07-9.9 0-4.1 1.32-7.28 1.33-3.17 3.8-4.97 2.48-1.8 5.83-1.8 5.25 0 8.05 3.45 2.8 3.45 2.8 9.55ZM456.41-15v-.3q0-3.9-1.55-5.95-1.55-2.05-4.65-2.05-5.65 0-6.15 8.3h12.35Z" opacity="1" fill="#000" class="slogan-text-1" data-fill-palette-color="secondary" id="text-1"/></svg></svg></svg></g></svg><svg viewBox="0 0 48.009 70.452" height="70.452" width="48.009" transform="translate(71.995)"><svg xmlns="http://www.w3.org/2000/svg" viewBox="13 4.118 38 55.764" x="0" y="0" height="70.452" width="48.009" class="icon-icon-0" data-fill-palette-color="accent" id="icon-0"><g data-fill-palette-color="accent"><path transform="rotate(-45 31 47)" data-fill-palette-color="accent" d="M27.05 45.879h7.9v2.243h-7.9z"/><path data-fill-palette-color="accent" d="M23 38h9v2h-9zM32 28a7 7 0 1 0-7-7 7.009 7.009 0 0 0 7 7Zm5-5h-2v-2h2Zm-5-8a5.957 5.957 0 0 1 4.8 2.4 1 1 0 0 1-1.6 1.2A3.964 3.964 0 0 0 32 17a1 1 0 0 1 0-2Zm-1 6h2v2h-2Zm-4 0h2v2h-2Z"/><path transform="rotate(-45 41 39)" data-fill-palette-color="accent" d="M39.879 35.05h2.243v7.9h-2.243z"/><path data-fill-palette-color="accent" d="M36 48h9v2h-9zM19 42h2v8h-2z"/><path d="M14.9 51.447 13.618 54h36.764l-1.277-2.553A1 1 0 0 1 49 51V13a1 1 0 0 1 .1-.447L50.382 10H13.618l1.282 2.553A1 1 0 0 1 15 13v38a1 1 0 0 1-.1.447Zm31.812-9.74-3 3a1 1 0 0 1-1.414 0l-7-7a1 1 0 0 1 0-1.414l3-3a1 1 0 0 1 1.414 0l7 7a1 1 0 0 1-.005 1.414ZM20 20h3.059a9 9 0 0 1 17.882 0H44a1 1 0 0 1 0 2h-3.059a9 9 0 0 1-17.882 0H20a1 1 0 0 1 0-2Zm-3 21a1 1 0 0 1 1-1h3v-3a1 1 0 0 1 1-1h11a1 1 0 0 1 1 1v4a.974.974 0 0 1-.126.46l2.833 2.833a1 1 0 0 1 0 1.414l-.293.293H46a1 1 0 0 1 1 1v4a1 1 0 0 1-1 1H35a1 1 0 0 1-1-1v-2.586l-4.293 4.293a1 1 0 0 1-1.414 0l-3-3a1 1 0 0 1 0-1.414L31.586 42H23v9a1 1 0 0 1-1 1h-4a1 1 0 0 1-1-1ZM48.44 5.9a1 1 0 0 1-.892 0l-3.561-1.782L40.436 5.9a1.006 1.006 0 0 1-.9 0l-3.547-1.782L32.438 5.9a1 1 0 0 1-.894 0l-3.553-1.782L24.439 5.9a1 1 0 0 1-.894 0l-3.552-1.782L16.442 5.9a1 1 0 0 1-.894 0L13 4.619V8h38V4.617ZM13 59.383l2.56-1.278a1 1 0 0 1 .892 0l3.561 1.777 3.551-1.777a1.006 1.006 0 0 1 .895 0l3.552 1.777 3.551-1.777a1 1 0 0 1 .894 0l3.553 1.777 3.552-1.777a1 1 0 0 1 .894 0l3.552 1.777 3.551-1.777a1 1 0 0 1 .894 0L51 59.381V56H13Z" data-fill-palette-color="accent"/></g></svg></svg></svg></svg></svg></svg></svg></svg>